<svg width="200" height="400" viewBox="0 0 200 400" fill="none" xmlns="http://www.w3.org/2000/svg">
  <rect width="200" height="400" rx="20" fill="#E0E5EC"/>
  <rect x="20" y="20" width="160" height="30" rx="8" fill="#8A8D91"/>
  <rect x="20" y="60" width="160" height="80" rx="8" fill="#D1D9E6"/>
  <rect x="30" y="70" width="50" height="60" rx="4" fill="#8A8D91"/>
  <rect x="90" y="75" width="80" height="10" rx="2" fill="#8A8D91"/>
  <rect x="90" y="95" width="50" height="10" rx="2" fill="#8A8D91"/>
  <rect x="150" y="75" width="20" height="30" rx="10" fill="#8A8D91"/>
  <rect x="20" y="150" width="160" height="80" rx="8" fill="#D1D9E6"/>
  <rect x="30" y="160" width="50" height="60" rx="4" fill="#8A8D91"/>
  <rect x="90" y="165" width="80" height="10" rx="2" fill="#8A8D91"/>
  <rect x="90" y="185" width="50" height="10" rx="2" fill="#8A8D91"/>
  <rect x="150" y="165" width="20" height="30" rx="10" fill="#8A8D91"/>
  <rect x="20" y="270" width="160" height="40" rx="8" fill="#D1D9E6"/>
  <rect x="30" y="280" width="80" height="20" rx="4" fill="#8A8D91"/>
  <rect x="120" y="280" width="50" height="20" rx="10" fill="#8A8D91"/>
  <rect x="40" y="340" width="120" height="40" rx="20" fill="#8A8D91"/>
  <path d="M70 360H130" stroke="#D1D9E6" stroke-width="3" stroke-linecap="round"/>
  <path d="M100 350L100 370" stroke="#D1D9E6" stroke-width="3" stroke-linecap="round"/>
</svg>
