<svg width="200" height="400" viewBox="0 0 200 400" fill="none" xmlns="http://www.w3.org/2000/svg">
  <rect width="200" height="400" rx="20" fill="#E0E5EC"/>
  <rect x="20" y="20" width="160" height="30" rx="8" fill="#8A8D91"/>
  <rect x="20" y="60" width="160" height="120" rx="8" fill="#D1D9E6"/>
  <circle cx="50" cy="90" r="15" fill="#8A8D91"/>
  <circle cx="100" cy="90" r="15" fill="#8A8D91"/>
  <circle cx="150" cy="90" r="15" fill="#8A8D91"/>
  <rect x="20" y="190" width="160" height="20" rx="4" fill="#8A8D91"/>
  <rect x="20" y="220" width="160" height="80" rx="8" fill="#D1D9E6"/>
  <rect x="30" y="240" width="140" height="10" rx="2" fill="#8A8D91"/>
  <rect x="30" y="260" width="140" height="10" rx="2" fill="#8A8D91"/>
  <rect x="30" y="280" width="70" height="10" rx="2" fill="#8A8D91"/>
  <rect x="40" y="330" width="120" height="50" rx="25" fill="#8A8D91"/>
  <path d="M80 355H120" stroke="#D1D9E6" stroke-width="4" stroke-linecap="round"/>
  <path d="M100 345L100 365" stroke="#D1D9E6" stroke-width="4" stroke-linecap="round"/>
</svg>
