<svg width="200" height="400" viewBox="0 0 200 400" fill="none" xmlns="http://www.w3.org/2000/svg">
  <rect width="200" height="400" rx="20" fill="#E0E5EC"/>
  <rect x="20" y="20" width="160" height="30" rx="8" fill="#8A8D91"/>
  <circle cx="100" cy="80" r="40" fill="#D1D9E6"/>
  <path d="M85 75C85 67.268 91.268 61 99 61H101C108.732 61 115 67.268 115 75V85C115 92.732 108.732 99 101 99H99C91.268 99 85 92.732 85 85V75Z" fill="#8A8D91"/>
  <circle cx="100" cy="120" r="10" fill="#8A8D91"/>
  <rect x="20" y="150" width="160" height="40" rx="8" fill="#D1D9E6"/>
  <rect x="30" y="160" width="100" height="20" rx="4" fill="#8A8D91"/>
  <circle cx="165" cy="170" r="10" fill="#8A8D91"/>
  <rect x="20" y="200" width="160" height="40" rx="8" fill="#D1D9E6"/>
  <rect x="30" y="210" width="100" height="20" rx="4" fill="#8A8D91"/>
  <circle cx="165" cy="220" r="10" fill="#8A8D91"/>
  <rect x="20" y="250" width="160" height="40" rx="8" fill="#D1D9E6"/>
  <rect x="30" y="260" width="100" height="20" rx="4" fill="#8A8D91"/>
  <circle cx="165" cy="270" r="10" fill="#8A8D91"/>
  <rect x="40" y="320" width="120" height="50" rx="25" fill="#8A8D91"/>
  <path d="M80 345L100 365L120 345" stroke="#D1D9E6" stroke-width="4" stroke-linecap="round" stroke-linejoin="round"/>
</svg>
